<svg preserveAspectRatio="none" width="100%" height="100%" overflow="visible" style="display: block;" viewBox="0 0 160.83 17.3751" fill="none" xmlns="http://www.w3.org/2000/svg">
<g id="coralBelt7Stripes">
<g id="Group 427320861">
<g id="Vector" filter="url(#filter0_d_0_4)">
<path d="M159.5 0.5H0.5V16.0451H159.5V0.5Z" fill="var(--fill-0, #ED2224)"/>
<path d="M159.5 0.5H0.5V16.0451H159.5V0.5Z" stroke="var(--stroke-0, #3F3C3C)" stroke-miterlimit="10"/>
</g>
</g>
<path id="Vector_2" d="M159.5 0.208008H124.5V16.208H159.5V0.208008Z" fill="var(--fill-0, #010101)"/>
<path id="Vector_3" d="M96.5 0.208008H21.5V16.208H96.5V0.208008Z" fill="var(--fill-0, white)"/>
<path id="Vector_4" d="M21.5 0.208008H11.5V16.208H21.5V0.208008Z" fill="url(#paint0_linear_0_4)"/>
<path id="Vector_5" d="M103.5 0.208008H93.5V16.208H103.5V0.208008Z" fill="url(#paint1_linear_0_4)"/>
<path id="Vector_6" d="M30.5 0.208008H27.5V16.208H30.5V0.208008Z" fill="var(--fill-0, #ED2224)"/>
<path id="Vector_7" d="M36.5 0.208008H33.5V16.208H36.5V0.208008Z" fill="var(--fill-0, #ED2224)"/>
<path id="Vector_8" d="M42.5 0.208008H39.5V16.208H42.5V0.208008Z" fill="var(--fill-0, #ED2224)"/>
<path id="Vector_9" d="M48.5 0.208008H45.5V16.208H48.5V0.208008Z" fill="var(--fill-0, #ED2224)"/>
<path id="Vector_10" d="M54.5 0.208008H51.5V16.208H54.5V0.208008Z" fill="var(--fill-0, #ED2224)"/>
<path id="Vector_11" d="M60.5 0.208008H57.5V16.208H60.5V0.208008Z" fill="var(--fill-0, #ED2224)"/>
<g id="Group 427320889">
<g id="Vector_12" filter="url(#filter1_d_0_4)">
<path d="M159.5 0.5H0.5V16.0451H159.5V0.5Z" fill="var(--fill-0, #ED2224)"/>
<path d="M159.5 0.5H0.5V16.0451H159.5V0.5Z" stroke="var(--stroke-0, #3F3C3C)" stroke-miterlimit="10"/>
</g>
</g>
<path id="Vector_13" d="M159.5 0.208008H124.5V16.208H159.5V0.208008Z" fill="var(--fill-0, #010101)"/>
<path id="Vector_14" d="M96.5 0.208008H21.5V16.208H96.5V0.208008Z" fill="var(--fill-0, white)"/>
<path id="Vector_15" d="M21.5 0.208008H11.5V16.208H21.5V0.208008Z" fill="url(#paint2_linear_0_4)"/>
<path id="Vector_16" d="M103.5 0.208008H93.5V16.208H103.5V0.208008Z" fill="url(#paint3_linear_0_4)"/>
<path id="Vector_17" d="M30.5 0.208008H27.5V16.208H30.5V0.208008Z" fill="var(--fill-0, #ED2224)"/>
<path id="Vector_18" d="M36.5 0.208008H33.5V16.208H36.5V0.208008Z" fill="var(--fill-0, #ED2224)"/>
<path id="Vector_19" d="M42.5 0.208008H39.5V16.208H42.5V0.208008Z" fill="var(--fill-0, #ED2224)"/>
<path id="Vector_20" d="M48.5 0.208008H45.5V16.208H48.5V0.208008Z" fill="var(--fill-0, #ED2224)"/>
<path id="Vector_21" d="M54.5 0.208008H51.5V16.208H54.5V0.208008Z" fill="var(--fill-0, #ED2224)"/>
<path id="Vector_22" d="M60.5 0.208008H57.5V16.208H60.5V0.208008Z" fill="var(--fill-0, #ED2224)"/>
</g>
<defs>
<filter id="filter0_d_0_4" x="0" y="0" width="160.83" height="17.3751" filterUnits="userSpaceOnUse" color-interpolation-filters="sRGB">
<feFlood flood-opacity="0" result="BackgroundImageFix"/>
<feColorMatrix in="SourceAlpha" type="matrix" values="0 0 0 0 0 0 0 0 0 0 0 0 0 0 0 0 0 0 127 0" result="hardAlpha"/>
<feOffset dx="0.83" dy="0.83"/>
<feColorMatrix type="matrix" values="0 0 0 0 0.00392157 0 0 0 0 0.00392157 0 0 0 0 0.00392157 0 0 0 0.2 0"/>
<feBlend mode="normal" in2="BackgroundImageFix" result="effect1_dropShadow_0_4"/>
<feBlend mode="normal" in="SourceGraphic" in2="effect1_dropShadow_0_4" result="shape"/>
</filter>
<filter id="filter1_d_0_4" x="0" y="0" width="160.83" height="17.3751" filterUnits="userSpaceOnUse" color-interpolation-filters="sRGB">
<feFlood flood-opacity="0" result="BackgroundImageFix"/>
<feColorMatrix in="SourceAlpha" type="matrix" values="0 0 0 0 0 0 0 0 0 0 0 0 0 0 0 0 0 0 127 0" result="hardAlpha"/>
<feOffset dx="0.83" dy="0.83"/>
<feColorMatrix type="matrix" values="0 0 0 0 0.00392157 0 0 0 0 0.00392157 0 0 0 0 0.00392157 0 0 0 0.2 0"/>
<feBlend mode="normal" in2="BackgroundImageFix" result="effect1_dropShadow_0_4"/>
<feBlend mode="normal" in="SourceGraphic" in2="effect1_dropShadow_0_4" result="shape"/>
</filter>
<linearGradient id="paint0_linear_0_4" x1="16.5" y1="16.208" x2="16.5" y2="0.208008" gradientUnits="userSpaceOnUse">
<stop offset="0.13" stop-color="#939393"/>
<stop offset="0.29" stop-color="#939393"/>
<stop offset="0.64" stop-color="#BBBBBB"/>
<stop offset="0.8" stop-color="#D6D6D6"/>
<stop offset="1" stop-color="#939598"/>
</linearGradient>
<linearGradient id="paint1_linear_0_4" x1="98.5" y1="16.208" x2="98.5" y2="0.208008" gradientUnits="userSpaceOnUse">
<stop offset="0.13" stop-color="#939393"/>
<stop offset="0.29" stop-color="#939393"/>
<stop offset="0.64" stop-color="#BBBBBB"/>
<stop offset="0.8" stop-color="#D6D6D6"/>
<stop offset="1" stop-color="#939598"/>
</linearGradient>
<linearGradient id="paint2_linear_0_4" x1="16.5" y1="16.208" x2="16.5" y2="0.208008" gradientUnits="userSpaceOnUse">
<stop offset="0.13" stop-color="#939393"/>
<stop offset="0.29" stop-color="#939393"/>
<stop offset="0.64" stop-color="#BBBBBB"/>
<stop offset="0.8" stop-color="#D6D6D6"/>
<stop offset="1" stop-color="#939598"/>
</linearGradient>
<linearGradient id="paint3_linear_0_4" x1="98.5" y1="16.208" x2="98.5" y2="0.208008" gradientUnits="userSpaceOnUse">
<stop offset="0.13" stop-color="#939393"/>
<stop offset="0.29" stop-color="#939393"/>
<stop offset="0.64" stop-color="#BBBBBB"/>
<stop offset="0.8" stop-color="#D6D6D6"/>
<stop offset="1" stop-color="#939598"/>
</linearGradient>
</defs>
</svg>
